<svg width="51" height="51" viewBox="0 0 51 51" fill="none" xmlns="http://www.w3.org/2000/svg">
<g clip-path="url(#clip0_550_14)">
<path d="M53.6094 7.23742L43.7707 16.5225L53.1821 32.3635L53.6094 31.8323V7.23742ZM-3.10156 7.37289V34.2859C-2.56781 34.3553 -1.92648 34.3935 -1.27931 34.4003C0.134892 34.4152 1.30056 34.3229 1.95536 34.264L8.22871 18.3903L-3.10156 7.37289ZM43.2625 19.866L42.4237 20.4088C42.4059 20.4203 41.7849 20.8062 41.6025 20.9199L40.339 21.6848L40.3569 21.6955C39.7714 22.0597 39.6087 22.1622 38.9442 22.5748C38.6071 22.7841 38.5987 22.789 38.279 22.9876C35.8616 21.6881 33.2386 20.6894 30.1776 19.904C26.328 21.067 22.2498 22.75 18.1775 24.3291C19.8682 26.3649 21.747 27.0278 23.6396 27.0515C25.8341 27.0789 28.0775 26.1245 29.6226 25.0554L30.5042 24.4454L31.3889 25.7238L45.1441 35.6517L50.5187 32.0791L43.2625 19.866ZM9.82245 20.1924L4.4174 33.8682L6.40109 35.3936L10.07 31.235L10.3639 30.902L10.8072 30.8743C10.9859 30.8631 11.1622 30.8579 11.3361 30.8588C12.5528 30.8667 13.6406 31.1824 14.4564 31.9025C15.0607 32.4353 15.4625 33.1447 15.6955 33.966L15.9671 33.9491C17.3962 33.8598 18.6838 34.1546 19.6164 34.9773C20.5489 35.8002 21.002 37.0412 21.0914 38.4705L21.0997 38.5992C21.867 38.744 22.5538 39.0462 23.1124 39.5389C24.045 40.3617 24.498 41.6025 24.5873 43.0318L24.6108 43.4035C24.6869 43.4276 24.7624 43.4538 24.8372 43.4819L25.0794 43.142L25.7311 42.2272L26.0662 41.7566L26.9395 42.3789L34.0198 47.4228C34.7899 47.2329 35.249 46.9373 35.5043 46.5786C35.7601 46.2198 35.8895 45.6886 35.8169 44.8979L27.3272 38.8181L26.4553 38.1938L27.0737 37.3306L27.8683 36.2148L28.7416 36.8371L38.3128 43.655C39.0829 43.4652 39.5423 43.1696 39.7976 42.8109C40.0531 42.4523 40.1825 41.9225 40.1104 41.1332L29.102 33.3235L28.2275 32.7028L29.4683 30.9538L30.3431 31.5743L41.3534 39.3857C42.1242 39.1958 42.5837 38.9002 42.8394 38.5413C43.0953 38.1821 43.2246 37.6506 43.1516 36.8584L29.9937 27.3617C28.2477 28.3968 26.0141 29.226 23.6129 29.196C20.8027 29.1608 17.7968 27.818 15.5855 24.4244C15.4981 24.2902 15.4418 24.1381 15.4208 23.9793C15.3998 23.8205 15.4147 23.659 15.4644 23.5067C15.514 23.3544 15.5971 23.2152 15.7076 23.0992C15.8181 22.9833 15.9532 22.8935 16.103 22.8366C17.6534 22.2475 19.22 21.625 20.7903 21.0073L9.82269 20.1931L9.82245 20.1924ZM11.3596 33.0143L5.6928 39.4372C5.80325 40.2409 6.05499 40.7408 6.39418 41.0401C6.73338 41.3394 7.26093 41.5268 8.07216 41.5362L13.7388 35.1136C13.6284 34.3097 13.3767 33.8096 13.0375 33.5103C12.6983 33.211 12.1708 33.0237 11.3595 33.0145L11.3596 33.0143ZM16.5193 36.0893L10.1199 43.3426C10.2303 44.1465 10.4821 44.6466 10.8212 44.9459C11.1608 45.2449 11.688 45.4324 12.4993 45.4415L18.8987 38.1885C18.7884 37.3845 18.5365 36.8846 18.1973 36.5852C17.8583 36.2859 17.3308 36.0985 16.5195 36.0891L16.5193 36.0893ZM20.0149 40.6508L14.3486 47.0736C14.4591 47.8774 14.7108 48.3774 15.05 48.6768C15.3893 48.9761 15.9167 49.1632 16.728 49.1727L22.3945 42.7505C22.2841 41.9463 22.0323 41.4463 21.6932 41.1469C21.354 40.8476 20.8265 40.6604 20.0152 40.651L20.0149 40.6508ZM22.9579 45.3136L18.336 50.5891C18.4462 51.3945 18.698 51.8951 19.0375 52.1947C19.3765 52.4937 19.9033 52.681 20.7135 52.6906L25.3356 47.4151C25.2253 46.6099 24.9734 46.1093 24.6339 45.8096C24.2951 45.5105 23.7682 45.3235 22.9581 45.3137L22.9579 45.3136ZM27.1686 45.8843C27.3704 46.4347 27.4871 47.0447 27.5277 47.6942L27.5553 48.1355L26.5692 49.2612L29.7531 51.5293C30.5233 51.3393 30.9822 51.0438 31.2376 50.685C31.4932 50.3264 31.6228 49.7958 31.5507 49.006L27.1687 45.8845L27.1686 45.8843Z" fill="#0072FF"/>
</g>
<defs>
<clipPath id="clip0_550_14">
<rect width="61" height="61" fill="white"/>
</clipPath>
</defs>
</svg>
