<svg width="51" height="51" viewBox="0 0 51 51" fill="none" xmlns="http://www.w3.org/2000/svg">
<g clip-path="url(#clip0_45_41)">
<path d="M51.8516 7.00012L42.3355 15.9808L51.4383 31.3024L51.8516 30.7886V7.00012ZM-3 7.13114V33.1618C-2.48375 33.2288 -1.86344 33.2658 -1.23749 33.2724C0.130342 33.2868 1.25779 33.1975 1.89112 33.1406L7.95879 17.7873L-3 7.13114ZM41.8439 19.2146L41.0327 19.7396C41.0154 19.7508 40.4148 20.124 40.2384 20.234L39.0163 20.9738L39.0336 20.9842C38.4673 21.3364 38.3099 21.4355 37.6672 21.8346C37.3411 22.037 37.3331 22.0418 37.0238 22.2339C34.6857 20.977 32.1487 20.011 29.1881 19.2514C25.4646 20.3763 21.5201 22.0041 17.5814 23.5314C19.2166 25.5004 21.0339 26.1416 22.8644 26.1645C24.987 26.191 27.1568 25.268 28.6512 24.2339L29.5039 23.6439L30.3597 24.8803L43.6638 34.4828L48.8623 31.0273L41.8439 19.2146ZM9.50028 19.5304L4.27244 32.7578L6.19109 34.2331L9.73974 30.2109L10.024 29.8888L10.4527 29.862C10.6255 29.8512 10.7961 29.8461 10.9643 29.8471C12.1411 29.8547 13.1932 30.16 13.9823 30.8565C14.5668 31.3718 14.9554 32.0579 15.1808 32.8524L15.4435 32.836C16.8257 32.7496 18.0711 33.0348 18.9731 33.8305C19.8751 34.6264 20.3133 35.8267 20.3997 37.2092L20.4078 37.3336C21.1499 37.4737 21.8142 37.766 22.3544 38.2426C23.2565 39.0384 23.6946 40.2384 23.781 41.6209L23.8037 41.9804C23.8774 42.0037 23.9504 42.029 24.0227 42.0563L24.257 41.7275L24.8873 40.8427L25.2114 40.3875L26.0561 40.9894L32.9043 45.868C33.6491 45.6843 34.0931 45.3984 34.3401 45.0514C34.5875 44.7043 34.7126 44.1906 34.6425 43.4258L26.4311 37.5454L25.5878 36.9416L26.1859 36.1066L26.9545 35.0274L27.7992 35.6293L37.0565 42.2237C37.8014 42.0401 38.2457 41.7542 38.4927 41.4073C38.7397 41.0604 38.8649 40.548 38.7952 39.7845L28.1477 32.2309L27.3019 31.6305L28.502 29.9389L29.3481 30.539L39.9974 38.0944C40.743 37.9107 41.1874 37.6248 41.4347 37.2776C41.6822 36.9302 41.8073 36.4161 41.7366 35.6499L29.0102 26.4646C27.3214 27.4657 25.1611 28.2678 22.8385 28.2387C20.1205 28.2047 17.2131 26.9059 15.0744 23.6236C14.9898 23.4938 14.9354 23.3467 14.9151 23.1931C14.8948 23.0395 14.9092 22.8833 14.9572 22.736C15.0052 22.5887 15.0856 22.454 15.1925 22.3418C15.2994 22.2297 15.43 22.1429 15.5749 22.0879C17.0745 21.518 18.5897 20.9159 20.1085 20.3186L9.50051 19.531L9.50028 19.5304ZM10.987 31.9319L5.50603 38.1442C5.61285 38.9215 5.85634 39.4051 6.18441 39.6945C6.51248 39.984 7.02274 40.1653 7.80737 40.1744L13.2883 33.9623C13.1814 33.1848 12.938 32.7011 12.6099 32.4116C12.2818 32.1221 11.7717 31.941 10.9869 31.932L10.987 31.9319ZM15.9776 34.9061L9.78802 41.9215C9.89473 42.699 10.1383 43.1828 10.4663 43.4723C10.7947 43.7615 11.3046 43.9428 12.0894 43.9516L18.2789 36.9364C18.1722 36.1588 17.9286 35.6753 17.6006 35.3857C17.2726 35.0962 16.7625 34.915 15.9777 34.9058L15.9776 34.9061ZM19.3586 39.3179L13.878 45.5302C13.9849 46.3076 14.2283 46.7912 14.5564 47.0808C14.8846 47.3703 15.3947 47.5513 16.1794 47.5604L21.6602 41.3488C21.5533 40.571 21.3098 40.0874 20.9818 39.7978C20.6537 39.5083 20.1436 39.3273 19.3588 39.3182L19.3586 39.3179ZM22.2051 43.8279L17.7347 48.9304C17.8413 49.7094 18.0848 50.1936 18.4132 50.4833C18.741 50.7726 19.2506 50.9537 20.0342 50.9631L24.5048 45.8605C24.3981 45.0817 24.1545 44.5975 23.8261 44.3076C23.4984 44.0183 22.9888 43.8374 22.2052 43.828L22.2051 43.8279ZM26.2777 44.3798C26.4729 44.9122 26.5857 45.5022 26.625 46.1305L26.6518 46.5573L25.698 47.646L28.7775 49.8398C29.5224 49.6561 29.9663 49.3702 30.2133 49.0232C30.4605 48.6764 30.5859 48.1631 30.5161 47.3992L26.2778 44.3801L26.2777 44.3798Z" fill="white"/>
</g>
<defs>
<clipPath id="clip0_45_41">
<rect width="59" height="59" fill="white"/>
</clipPath>
</defs>
</svg>
