<svg width="45" height="47" viewBox="0 0 45 47" fill="none" xmlns="http://www.w3.org/2000/svg">
<path d="M42.7953 13.4181C45.2042 18.6526 45.6569 24.6313 44.0656 30.1934C42.4742 35.7555 38.9524 40.5043 34.1837 43.5177C29.4151 46.5311 23.7399 47.5943 18.26 46.5007C12.78 45.4071 7.88627 42.2348 4.52882 37.5998C1.17136 32.9647 -0.410253 27.1975 0.0910204 21.4178C0.592293 15.6382 3.14069 10.2584 7.24147 6.32296C11.3422 2.38752 16.7028 0.177194 22.2825 0.12109C27.8622 0.0649853 33.2628 2.16711 37.436 6.01935L42.727 0.516713C42.9759 0.262341 43.3113 0.120556 43.6603 0.122244C44.0092 0.123932 44.3434 0.268955 44.59 0.525724C44.8366 0.782493 44.9757 1.1302 44.9769 1.49311C44.9781 1.85602 44.8414 2.20473 44.5965 2.46327L23.4325 24.4738C23.3099 24.6032 23.164 24.7061 23.0031 24.7765C22.8421 24.8469 22.6693 24.8835 22.4947 24.8841C22.3201 24.8847 22.1471 24.8494 21.9857 24.7801C21.8243 24.7109 21.6777 24.6091 21.5543 24.4806C21.4309 24.3521 21.3332 24.1995 21.2668 24.0316C21.2004 23.8636 21.1666 23.6836 21.1674 23.502C21.1682 23.3205 21.2036 23.1408 21.2715 22.9735C21.3394 22.8062 21.4385 22.6546 21.563 22.5273L28.0423 15.7865C26.3541 14.4737 24.2858 13.7993 22.1791 13.8746C20.0724 13.95 18.0536 14.7706 16.4561 16.201C14.8587 17.6313 13.7784 19.5857 13.3937 21.7411C13.009 23.8965 13.3429 26.1239 14.3404 28.0552C15.3378 29.9865 16.939 31.506 18.8794 32.3626C20.8197 33.2192 22.983 33.3616 25.0117 32.7663C27.0404 32.171 28.8131 30.8737 30.0367 29.0886C31.2604 27.3036 31.8618 25.1378 31.7416 22.9491C31.7217 22.5843 31.842 22.2262 32.076 21.9536C32.31 21.681 32.6385 21.5162 32.9893 21.4955C33.3402 21.4748 33.6845 21.6 33.9466 21.8433C34.2087 22.0867 34.3672 22.4284 34.3871 22.7932C34.5458 25.6244 33.7651 28.4264 32.1756 30.7308C30.586 33.0351 28.284 34.7021 25.6544 35.4529C23.0248 36.2038 20.2271 35.993 17.729 34.8559C15.2309 33.7187 13.1839 31.7241 11.9303 29.2056C10.6767 26.6871 10.2925 23.7973 10.8419 21.0195C11.3912 18.2416 12.8409 15.7442 14.9486 13.9446C17.0562 12.1451 19.6939 11.1527 22.4208 11.1332C25.1476 11.1137 27.7982 12.0684 29.9294 13.8377L35.5599 7.97967C31.8605 4.62479 27.0957 2.81675 22.1881 2.90557C17.2805 2.99439 12.5791 4.97377 8.99413 8.46049C5.40917 11.9472 3.19564 16.6932 2.78207 21.7798C2.3685 26.8663 3.78431 31.9315 6.7554 35.9948C9.72649 40.0581 14.0415 42.8304 18.8651 43.775C23.6887 44.7196 28.6777 43.7693 32.8663 41.1081C37.0549 38.4469 40.1451 34.2641 41.5387 29.3695C42.9323 24.4749 42.5301 19.2166 40.41 14.6126C40.3346 14.4497 40.2907 14.273 40.281 14.0925C40.2713 13.912 40.2958 13.7313 40.3532 13.5606C40.4106 13.39 40.4998 13.2328 40.6157 13.098C40.7315 12.9632 40.8717 12.8534 41.0284 12.775C41.185 12.6966 41.3549 12.651 41.5285 12.6408C41.7021 12.6307 41.8758 12.6562 42.0399 12.716C42.204 12.7757 42.3552 12.8684 42.4848 12.9889C42.6144 13.1094 42.7199 13.2552 42.7953 13.4181Z" fill="white"/>
</svg>
