<svg width="24" height="24" viewBox="0 0 24 24" fill="none" xmlns="http://www.w3.org/2000/svg">
<path d="M18.9672 14.8671C18.4759 14.3555 17.8832 14.082 17.2551 14.082C16.6321 14.082 16.0344 14.3505 15.5228 14.8621L13.9221 16.4576C13.7904 16.3867 13.6587 16.3209 13.5321 16.255C13.3497 16.1639 13.1775 16.0777 13.0306 15.9866C11.5312 15.0343 10.1687 13.7933 8.8618 12.1875C8.22863 11.3872 7.80314 10.7135 7.49415 10.0297C7.90951 9.64979 8.29448 9.25469 8.66931 8.87479C8.81114 8.73296 8.95297 8.58607 9.0948 8.44424C10.1585 7.38051 10.1585 6.00273 9.0948 4.939L7.71196 3.55616C7.55493 3.39913 7.39284 3.23704 7.24088 3.07495C6.93696 2.7609 6.61784 2.43671 6.28859 2.13279C5.79725 1.64652 5.20967 1.38818 4.5917 1.38818C3.97372 1.38818 3.37601 1.64652 2.86947 2.13279C2.86441 2.13786 2.86441 2.13786 2.85934 2.14292L1.13712 3.88034C0.48875 4.52871 0.118979 5.31891 0.0379331 6.23574C-0.0836357 7.71482 0.351986 9.0926 0.6863 9.99424C1.50689 12.2078 2.73271 14.2593 4.5613 16.4576C6.77993 19.1068 9.44938 21.1988 12.4987 22.6728C13.6638 23.225 15.2188 23.8784 16.9562 23.9898C17.0626 23.9949 17.1741 24 17.2754 24C18.4455 24 19.4281 23.5795 20.1981 22.7438C20.2031 22.7336 20.2133 22.7286 20.2183 22.7184C20.4817 22.3993 20.7857 22.1106 21.1048 21.8016C21.3226 21.5939 21.5455 21.3761 21.7633 21.1482C22.2648 20.6264 22.5282 20.0186 22.5282 19.3956C22.5282 18.7674 22.2597 18.1647 21.7481 17.6581L18.9672 14.8671ZM20.7806 20.2009C20.7755 20.2009 20.7755 20.206 20.7806 20.2009C20.583 20.4137 20.3804 20.6062 20.1626 20.8189C19.8334 21.133 19.4991 21.4622 19.185 21.832C18.6734 22.3791 18.0706 22.6374 17.2804 22.6374C17.2045 22.6374 17.1234 22.6374 17.0474 22.6323C15.543 22.5361 14.145 21.9485 13.0964 21.447C10.2294 20.0591 7.71196 18.0887 5.61996 15.5915C3.89268 13.5096 2.73777 11.5848 1.9729 9.51809C1.50182 8.25682 1.3296 7.27414 1.40558 6.34718C1.45624 5.75453 1.68418 5.26319 2.1046 4.84276L3.83189 3.11547C4.08009 2.88247 4.34349 2.75583 4.60183 2.75583C4.92094 2.75583 5.17928 2.94832 5.34137 3.11041C5.34643 3.11547 5.3515 3.12054 5.35656 3.1256C5.66555 3.41433 5.95934 3.71319 6.26833 4.0323C6.42536 4.1944 6.58745 4.35649 6.74954 4.52364L8.13239 5.90649C8.66931 6.44342 8.66931 6.93982 8.13239 7.47675C7.98549 7.62365 7.84366 7.77054 7.69676 7.91237C7.27127 8.34799 6.86604 8.75322 6.42536 9.14832C6.41523 9.15845 6.4051 9.16352 6.40003 9.17365C5.96441 9.60927 6.04545 10.0348 6.13663 10.3235C6.1417 10.3387 6.14676 10.3539 6.15183 10.3691C6.51147 11.2403 7.018 12.0609 7.78794 13.0385L7.79301 13.0436C9.19105 14.7658 10.6651 16.1081 12.291 17.1364C12.4987 17.2681 12.7115 17.3745 12.9141 17.4758C13.0964 17.567 13.2687 17.6531 13.4156 17.7442C13.4358 17.7544 13.4561 17.7696 13.4763 17.7797C13.6486 17.8658 13.8107 17.9063 13.9778 17.9063C14.3982 17.9063 14.6616 17.6429 14.7478 17.5568L16.4801 15.8245C16.6523 15.6522 16.9259 15.4446 17.245 15.4446C17.559 15.4446 17.8174 15.6421 17.9744 15.8143C17.9795 15.8194 17.9795 15.8194 17.9845 15.8245L20.7755 18.6155C21.2973 19.1322 21.2973 19.664 20.7806 20.2009Z" fill="#3E4073"/>
<path d="M12.9699 5.70896C14.297 5.93183 15.5025 6.55994 16.465 7.52236C17.4274 8.48478 18.0504 9.69034 18.2784 11.0175C18.3341 11.3518 18.6228 11.5848 18.9521 11.5848C18.9926 11.5848 19.028 11.5797 19.0686 11.5747C19.4434 11.5139 19.6916 11.1593 19.6308 10.7845C19.3573 9.17873 18.5975 7.71484 17.4375 6.55487C16.2775 5.39491 14.8137 4.6351 13.2079 4.36157C12.8331 4.30079 12.4836 4.54899 12.4177 4.91876C12.3519 5.28853 12.595 5.64817 12.9699 5.70896Z" fill="#3E4073"/>
<path d="M23.9718 10.5869C23.521 7.94279 22.2749 5.53674 20.3602 3.62203C18.4455 1.70732 16.0395 0.461243 13.3954 0.0104253C13.0256 -0.0554245 12.6761 0.197844 12.6102 0.567615C12.5494 0.942452 12.7976 1.29196 13.1725 1.35781C15.5329 1.75798 17.6857 2.87742 19.3978 4.58445C21.1099 6.29654 22.2243 8.44932 22.6244 10.8098C22.6802 11.1441 22.9689 11.3771 23.2981 11.3771C23.3387 11.3771 23.3741 11.372 23.4146 11.367C23.7844 11.3113 24.0377 10.9567 23.9718 10.5869Z" fill="#3E4073"/>
</svg>
