<svg width="50" height="54" viewBox="0 0 50 54" fill="none" xmlns="http://www.w3.org/2000/svg">
<path d="M36.25 10C37.5761 10 38.8479 9.47322 39.7855 8.53553C40.7232 7.59785 41.25 6.32608 41.25 5C41.25 3.67392 40.7232 2.40215 39.7855 1.46447C38.8479 0.526784 37.5761 0 36.25 0C34.9239 0 33.6521 0.526784 32.7145 1.46447C31.7768 2.40215 31.25 3.67392 31.25 5C31.25 6.32608 31.7768 7.59785 32.7145 8.53553C33.6521 9.47322 34.9239 10 36.25 10ZM27.25 44.75L29.75 33.75L35 38.75V53.75H40V35L34.75 30L36.25 22.5C37.9628 24.4631 40.0762 26.0366 42.4479 27.1146C44.8196 28.1927 47.3947 28.7503 50 28.75V23.75C45.6 23.825 41.5 21.525 39.25 17.75L36.75 13.75C35.85 12.25 34.25 11.25 32.5 11.25C31.75 11.25 31.25 11.5 30.5 11.5L17.5 17V28.75H22.5V20.25L27 18.5L23 38.75L10.75 36.25L9.75 41.25L27.25 44.75ZM5 18.75C4.33696 18.75 3.70107 18.4866 3.23223 18.0178C2.76339 17.5489 2.5 16.913 2.5 16.25C2.5 15.587 2.76339 14.9511 3.23223 14.4822C3.70107 14.0134 4.33696 13.75 5 13.75H12.5V18.75H5ZM7.5 8.75C6.83696 8.75 6.20107 8.48661 5.73223 8.01777C5.26339 7.54893 5 6.91304 5 6.25C5 5.58696 5.26339 4.95107 5.73223 4.48223C6.20107 4.01339 6.83696 3.75 7.5 3.75H20V8.75H7.5ZM2.5 28.75C1.83696 28.75 1.20107 28.4866 0.732233 28.0178C0.263392 27.5489 0 26.913 0 26.25C0 25.587 0.263392 24.9511 0.732233 24.4822C1.20107 24.0134 1.83696 23.75 2.5 23.75H12.5V28.75H2.5Z" fill="white"/>
</svg>
