<svg width="45" height="35" viewBox="0 0 45 35" fill="none" xmlns="http://www.w3.org/2000/svg">
<path d="M15.8425 0.793145C14.977 0.793145 14.0135 1.37739 13.2839 2.89465L12.6325 4.25026C12.8698 4.23006 13.1079 4.21941 13.3459 4.21941C15.0705 4.21941 16.7917 4.75319 18.3101 5.80962V2.72574C17.5923 1.34057 16.6733 0.793045 15.8426 0.793045L15.8425 0.793145ZM29.1575 0.793145C28.3268 0.793145 27.4081 1.34057 26.6903 2.72584V5.81071C28.4191 4.61037 30.4127 4.09081 32.3698 4.25424L31.7162 2.89465C30.9865 1.37729 30.023 0.793145 29.1574 0.793145H29.1575ZM13.3458 5.9614C11.5227 5.9614 9.70147 6.7271 8.20276 8.25062L4.62537 14.7618C6.0123 14.0906 7.55705 13.7149 9.18467 13.7149C13.009 13.7149 16.3777 15.7843 18.31 18.9029V8.06967C16.8464 6.66479 15.0963 5.9614 13.3458 5.9614ZM31.7623 5.96469C29.9763 5.93423 28.1839 6.63553 26.6903 8.06928V18.9028C28.6225 15.7844 31.9913 13.7149 35.8154 13.7149C37.4433 13.7149 38.988 14.0906 40.375 14.7618L36.7976 8.25062C35.3286 6.75736 33.5485 5.99524 31.7625 5.96469H31.7623ZM22.5 7.28447C22.0107 7.28447 21.3629 7.56067 20.0325 8.24266V21.4817C20.726 20.9528 21.5795 20.639 22.5 20.639C23.4207 20.639 24.2741 20.9529 24.9676 21.4818V8.24266C23.6373 7.56067 22.9894 7.28447 22.5 7.28447ZM9.18486 15.5064C4.1349 15.5064 0.0595703 19.7447 0.0595703 24.9966C0.0595703 30.2484 4.1349 34.4869 9.18486 34.4869C14.2346 34.4869 18.3099 30.2484 18.3099 24.9966C18.3099 19.7447 14.2346 15.5064 9.18477 15.5064H9.18486ZM35.8152 15.5064C30.7654 15.5064 26.6902 19.7447 26.6902 24.9966C26.6902 30.2484 30.7654 34.4869 35.8153 34.4869C40.8653 34.4869 44.9406 30.2484 44.9406 24.9966C44.9406 19.7447 40.8653 15.5064 35.8153 15.5064H35.8152ZM9.0349 17.3979C9.15211 17.3962 9.26934 17.3971 9.38651 17.4009C10.0894 17.4233 10.7928 17.5464 11.47 17.7807C14.9959 18.9097 17.1877 22.9229 16.3146 26.65C15.5823 30.4066 11.9645 33.0707 8.31435 32.5392C4.60604 32.1545 1.67485 28.6 1.88693 24.7277C1.90291 23.5921 2.18676 22.5046 2.67169 21.5304C2.84302 22.0371 3.16122 22.476 3.58246 22.7868C4.0037 23.0976 4.50724 23.2648 5.02369 23.2655C5.35155 23.2655 5.67621 23.1984 5.97912 23.068C6.28204 22.9375 6.55728 22.7463 6.78914 22.5052C7.021 22.2642 7.20493 21.9779 7.33043 21.6629C7.45593 21.3479 7.52055 21.0103 7.52059 20.6693C7.51998 20.1319 7.35904 19.6079 7.05997 19.1697C6.7609 18.7314 6.33844 18.4004 5.85085 18.2225C6.71773 17.7553 7.6785 17.4666 8.68424 17.4116C8.80098 17.4044 8.91786 17.3998 9.0348 17.3979H9.0349ZM35.6652 17.3979C35.7824 17.3962 35.8996 17.3971 36.0168 17.4009C36.7196 17.4233 37.4232 17.5464 38.1006 17.7807C41.6263 18.9097 43.8181 22.9229 42.9451 26.65C42.2128 30.4065 38.5951 33.0707 34.9453 32.5395C31.2368 32.1548 28.3054 28.5999 28.5176 24.7275C28.5335 23.5919 28.8174 22.5046 29.3023 21.5304C29.4736 22.0371 29.7918 22.476 30.2131 22.7868C30.6343 23.0975 31.1378 23.2648 31.6542 23.2655C32.3163 23.2655 32.9513 22.992 33.4194 22.5051C33.8876 22.0182 34.1507 21.3579 34.1507 20.6693C34.1502 20.132 33.9893 19.608 33.6903 19.1698C33.3913 18.7315 32.9689 18.4005 32.4814 18.2225C33.3482 17.7553 34.3088 17.4666 35.3145 17.4116C35.4313 17.4044 35.5481 17.3998 35.6652 17.3979ZM22.5 22.4304C21.1271 22.4304 20.0325 23.5687 20.0325 24.9966C20.0325 26.4244 21.1271 27.5628 22.5 27.5628C23.873 27.5628 24.9676 26.4244 24.9676 24.9966C24.9676 23.5687 23.873 22.4306 22.5 22.4306V22.4304Z" fill="white"/>
</svg>
